<svg xmlns="http://www.w3.org/2000/svg" width="15.693" height="15" viewBox="0 0 15.693 15"><defs><style>.a{fill:#37a11a;}</style></defs><g transform="translate(0 -0.5)"><path class="a" d="M6.488,159.684H9.852V169.8H6.488Zm0,0" transform="translate(-6.289 -154.305)"/><path class="a" d="M1.9.5A1.753,1.753,0,1,0,1.859,4h.022A1.754,1.754,0,1,0,1.9.5Zm0,0"/><path class="a" d="M183.369,151.934a3.34,3.34,0,0,0-3.032,1.671v-1.433h-3.364v10.121h3.364V156.64a2.306,2.306,0,0,1,.111-.821,1.841,1.841,0,0,1,1.726-1.23c1.217,0,1.7.928,1.7,2.289v5.414h3.364v-5.8C187.241,153.38,185.582,151.934,183.369,151.934Zm0,0" transform="translate(-171.548 -146.792)"/></g></svg>